<svg width="20" height="14" viewBox="0 0 20 14" fill="none" xmlns="http://www.w3.org/2000/svg">
<path fill-rule="evenodd" clip-rule="evenodd" d="M10 0.181641C5.45455 0.181641 1.57273 3.00891 0 6.99982C1.57273 10.9907 5.45455 13.818 10 13.818C14.5455 13.818 18.4273 10.9907 20 6.99982C18.4273 3.00891 14.5455 0.181641 10 0.181641ZM10 11.5453C7.49091 11.5453 5.45455 9.50891 5.45455 6.99982C5.45455 4.49073 7.49091 2.45437 10 2.45437C12.5091 2.45437 14.5455 4.49073 14.5455 6.99982C14.5455 9.50891 12.5091 11.5453 10 11.5453ZM10 4.27255C8.49091 4.27255 7.27273 5.49073 7.27273 6.99982C7.27273 8.50891 8.49091 9.7271 10 9.7271C11.5091 9.7271 12.7273 8.50891 12.7273 6.99982C12.7273 5.49073 11.5091 4.27255 10 4.27255Z" fill="black"/>
</svg>
