<svg width="15" height="15" viewBox="0 0 15 15" fill="none" xmlns="http://www.w3.org/2000/svg">
<path d="M14.3149 0.925821V14.4258H12.1542L11.8923 12.7721C10.7137 14.0208 9.04411 14.7633 7.14533 14.7633C3.24957 14.7633 0.335938 11.7258 0.335938 7.67582C0.335938 3.62582 3.24957 0.62207 7.14533 0.62207C9.07685 0.62207 10.7465 1.36457 11.925 2.61332L12.2524 0.925821H14.3149ZM11.6304 7.67582C11.6304 5.14457 9.82981 3.25457 7.3745 3.25457C4.91919 3.25457 3.08589 5.14457 3.08589 7.67582C3.08589 10.2071 4.91919 12.0971 7.3745 12.0971C9.82981 12.0971 11.6304 10.2071 11.6304 7.67582Z" fill="white"/>
</svg>
