<svg width="15" height="19" viewBox="0 0 15 19" fill="none" xmlns="http://www.w3.org/2000/svg">
<path d="M14.4559 0.0991798V18.4254H12.4261L12.066 16.9067C10.8875 18.0879 9.28333 18.7629 7.45003 18.7629C3.48879 18.7629 0.640625 15.7254 0.640625 11.6754C0.640625 7.62543 3.48879 4.58793 7.45003 4.58793C9.11965 4.58793 10.6256 5.16168 11.7714 6.14043V0.0654297L14.4559 0.0991798ZM7.64646 16.0967C10.1018 16.0967 11.9351 14.1729 11.9351 11.6754C11.9351 9.14418 10.1018 7.25418 7.64646 7.25418C5.19115 7.25418 3.39058 9.14418 3.39058 11.6754C3.39058 14.2404 5.19115 16.0967 7.64646 16.0967Z" fill="white"/>
</svg>
