<svg width="21" height="15" viewBox="0 0 21 15" fill="none" xmlns="http://www.w3.org/2000/svg">
<path d="M15.4618 0.62207C18.2117 0.62207 20.0778 2.78207 20.0778 5.85332V14.4258H17.3933V6.52832C17.3933 4.36832 16.4767 3.11957 14.8398 3.11957C13.1047 3.11957 11.7625 4.73957 11.7625 7.06832V14.4258H9.14345V6.52832C9.14345 4.36832 8.2268 3.11957 6.58993 3.11957C4.85484 3.11957 3.5126 4.73957 3.5126 7.06832V14.4258H0.828125V0.925821H2.7269L3.18523 2.68082C4.16735 1.43207 5.67327 0.62207 7.24468 0.62207C9.0125 0.62207 10.4202 1.53332 11.1732 2.98457C12.1553 1.53332 13.7594 0.62207 15.4618 0.62207Z" fill="white"/>
</svg>
