<svg width="40" height="40" viewBox="0 0 40 40" fill="none" xmlns="http://www.w3.org/2000/svg">
<path d="M0 20C0 8.95431 8.95431 0 20 0C31.0457 0 40 8.95431 40 20C40 31.0457 31.0457 40 20 40C8.95431 40 0 31.0457 0 20Z" fill="#E3E3E3"/>
<path fill-rule="evenodd" clip-rule="evenodd" d="M20.2141 26.9921C20.9127 26.9921 20.9127 25.9522 20.9127 25.5478C20.9127 24.827 21.6127 24.1048 22.3113 24.1048C23.0099 24.1048 24.2083 25.3427 25.1071 26.2714C25.8071 26.9936 25.8071 26.9936 26.5042 26.9936H28.6014C28.6014 26.9936 30 26.9373 30 25.5492C30 25.0986 29.5212 24.333 27.9028 22.6605C26.5042 21.2175 25.7889 21.9643 27.9028 19.0524C29.1908 17.2802 30.1288 15.6726 29.9678 15.2104C29.8138 14.7684 26.2298 14.0636 25.8057 14.7222C24.4085 16.8873 24.1509 17.4174 23.7085 18.3302C23.0085 19.7746 22.9399 20.4968 22.3113 20.4968C21.6757 20.4968 21.6113 19.0957 21.6113 18.3302C21.6113 15.9441 21.9473 14.2571 20.9113 14H18.8169C17.6914 14 16.7198 14.7222 16.7198 14.7222C16.7198 14.7222 15.8518 15.4198 16.0198 15.4444C16.2298 15.4733 17.4198 15.1454 17.4198 16.1666V17.6095C17.4198 17.6095 17.4254 20.4968 16.7198 20.4968C16.0198 20.4968 14.6226 17.608 13.224 15.4429C12.6752 14.5936 12.5254 14.7207 11.8268 14.7207C11.0764 14.7222 10.4283 14.754 9.72826 14.754C9.02827 14.754 8.94007 15.2133 9.02827 15.4444C10.4283 19.0553 11.432 21.3201 14.0878 24.1756C16.5238 26.7957 18.152 26.9344 19.5141 26.9936C19.8641 27.008 19.5141 26.9936 20.2141 26.9936V26.9921Z" fill="#939393"/>
</svg>
