<svg width="198" height="56" fill="none" xmlns="http://www.w3.org/2000/svg"><path d="M163.99 25.018h-13.521v-5.062l5.596.042-3.973-11.895-5.928 16.915h-6.719c3.391-8.478 7.239-19.727 9.319-24.914l6.718-.02 8.508 24.934zm-83.264.042l-11.524-.022c-1.144 0-3.099-.125-3.869-.354-1.206-.354-1.518-.646-1.955-1.833-.333-.896-.02-2.708-.02-4.52V6.665c0-2.625-.209-4.666.81-5.583C64.98.353 67.143.27 69.224.27h13.603L80.83 5.415l-11.15.021v14.395l13.188-.042-2.142 5.27zm-21.111.042H42.143V.313h19.365l-1.79 5.27h-11.19l.021 4.375h11.066v5.228H48.653l.02 4.417 13.043.083-2.101 5.416zM34.114 10.416l-.083-5.062-6.615.042v5h6.698v.02zm6.718-.375c0 3.625-2.309 4.291-5.637 4.166l-7.779-.291v11.248h-6.531V.417h14.227c2.101 0 3.807.25 4.639 1.146.852.895 1.06 2.791 1.06 5.25v3.228h.021zm-21.78 15.353h-6.094V7.02H6.427v18.373H.332V.625h18.72v24.769zm82.828-.21l-11.523-.02c-1.144 0-3.1-.126-3.87-.355-1.206-.354-1.518-.646-1.955-1.833-.332-.896-.02-2.708-.02-4.52V6.79c0-2.625-.208-4.666.81-5.583.812-.729 2.975-.812 5.055-.812h13.604l-1.997 5.145-11.15.021v14.395l13.188-.042-2.142 5.27zm35.86-18.038c0-2.729.062-5.27-.021-6.728-1.165-.042-4.555.02-7.239.02h-17.742c-2.704 0-5.616-.041-7.051 0 .02 1.375-.208 4.042-.208 6.708v18.06h6.697V5.356l6.344-.021-.062 20.06 6.344-.187.042-19.957h6.531v20.04l6.365-.083V7.147zm60.238 11.227c0 2.729.062 5.27-.021 6.729-1.165.041-4.555-.021-7.238-.021h-17.743c-2.704 0-5.907.041-7.322 0 .146-8.25.063-16.52.063-24.769h6.718v19.853l6.344.02-.062-20.06 6.323.167.042 19.956h6.531V.208l6.365.084v18.081zM14.248 40.059v-8.395h-3.973V30.35h9.63l-.02 1.313h-3.91v8.395h-1.727zm14.04-3.188l-2.412-5.145-2.393 5.145h4.805zm1.519 3.188l-.915-1.917h-5.908l-.977 1.916h-1.852l4.597-9.707h2.184l4.701 9.708h-1.83zm11.336 0v-4.313h-6.76v4.313h-1.706v-9.687h1.706v4.125h6.76v-4.125h1.706v9.687h-1.706zm11.94 0l-5.575-4.354h-.957v4.354h-1.706V30.35h1.706v4.083h.978l4.95-4.083h2.392l-5.803 4.687 6.469 5.02h-2.455zm28.413 0v-8.395h-3.973V30.35h9.63l-.02 1.313H83.2v8.395h-1.705zm11.481-4.917c1.144 0 1.914-.104 2.268-.291.436-.23.644-.688.644-1.438 0-.687-.124-1.145-.395-1.395-.25-.25-.749-.375-1.477-.375H89.92v3.5h3.057zm-4.742 4.916v-9.707h5.97c1.123 0 1.976.23 2.537.688.562.458.853 1.187.853 2.166 0 1.188-.333 2.02-.978 2.5-.644.458-1.705.687-3.265.687H89.92v3.646h-1.685v.02zm31.408 0V31.83l-6.677 8.229h-2.412V30.35h1.705v8.312l6.656-8.312h2.413v9.708h-1.685zm6.698 0v-8.394h-3.973V30.35h9.631l-.021 1.313h-3.931v8.395h-1.706zm6.719 0v-9.707h8.174v1.27h-6.469v2.834h6.178v1.27h-6.178v3.042h6.448v1.291h-8.153zm17.825 0v-8.394h-5.512v5.478c0 .98-.166 1.688-.52 2.146-.395.5-1.04.77-1.934.77h-1.04v-1.27h.499c.624 0 .894-.125.998-.23.146-.145.312-.458.312-1.29v-6.896h8.924v9.687h-1.727zm9.34-1.291c1.102 0 1.56-.188 1.747-.333.27-.209.395-.625.395-1.209 0-.624-.125-1.041-.395-1.25-.312-.25-.936-.354-1.872-.354h-3.682v3.167h3.807v-.021zm-5.512 1.291v-9.707h1.705v3.958h3.786c1.373 0 2.35.209 2.954.667.624.458.936 1.208.936 2.25 0 1-.312 1.729-.895 2.187-.582.437-1.518.666-2.87.666h-5.616v-.02zm19.51 0v-4.312h-6.76v4.313h-1.685v-9.687h1.706v4.125h6.76v-4.125h1.706v9.687h-1.727zm15.205 0v-9.707h8.175v1.27h-6.469v2.834h6.178v1.27h-6.178v3.042h6.448v1.291h-8.154zm-184.394.105c-1.956 0-3.245-.292-3.91-.917-.75-.687-1.124-1.979-1.124-4 0-2 .354-3.312 1.102-4.02.687-.646 1.976-.979 3.932-.979 1.913 0 3.203.25 3.89.77.623.46.956 1.292.956 2.48v.187l-1.643-.02-.02-.146c-.146-1.042-.396-1.417-.604-1.563-.375-.291-1.248-.437-2.58-.437-1.33 0-2.225.229-2.662.708-.437.458-.645 1.479-.645 3.02 0 1.542.208 2.542.624 2.98.416.437 1.31.666 2.684.666 1.372 0 2.288-.146 2.725-.438.416-.27.603-.833.603-1.687v-.187h1.664v.187c0 1.292-.354 2.188-1.061 2.687-.707.48-1.976.709-3.931.709zm55.973-8.645c-2.017 0-2.745.333-2.995.604-.25.291-.562 1.041-.562 3.083 0 1.625.208 2.645.604 3.062.395.417 1.393.625 2.974.625 1.58 0 2.58-.208 2.974-.625.396-.417.583-1.437.583-3.062 0-1.625-.187-2.666-.582-3.083-.416-.396-1.415-.604-2.996-.604zm-.02 8.645c-2.122 0-3.516-.313-4.223-.958-.707-.646-1.06-1.959-1.06-4 0-2.042.353-3.354 1.06-4 .707-.645 2.1-.958 4.243-.958 2.122 0 3.515.313 4.202.958.707.646 1.04 1.958 1.04 4 0 2.041-.354 3.354-1.06 4-.666.645-2.06.958-4.202.958zm11.273 0c-1.955 0-3.245-.292-3.91-.917-.749-.687-1.103-1.979-1.103-4 0-2 .354-3.312 1.103-4.02.686-.646 1.976-.979 3.931-.979 1.914 0 3.203.25 3.89.77.624.46.956 1.292.956 2.48v.187l-1.643-.02-.02-.146c-.146-1.042-.396-1.417-.604-1.563-.374-.291-1.248-.437-2.579-.437-1.331 0-2.226.229-2.662.708-.437.458-.645 1.479-.645 3.02 0 1.542.208 2.542.645 2.98.416.437 1.31.666 2.683.666 1.373 0 2.288-.146 2.725-.438.416-.27.603-.833.603-1.687v-.187h1.664v.187c0 1.292-.354 2.188-1.06 2.687-.729.48-2.018.709-3.974.709zm31.617-8.645c-2.018 0-2.746.333-2.996.604-.249.291-.561 1.041-.561 3.083 0 1.625.208 2.645.603 3.062.395.417 1.394.625 2.974.625 1.581 0 2.58-.208 2.975-.625.395-.417.582-1.437.582-3.062 0-1.625-.187-2.666-.582-3.083-.395-.396-1.394-.604-2.995-.604zm0 8.645c-2.122 0-3.516-.313-4.223-.958-.707-.646-1.06-1.959-1.06-4 0-2.042.353-3.354 1.06-4 .707-.645 2.101-.958 4.243-.958 2.122 0 3.516.313 4.202.958.707.646 1.04 1.958 1.04 4 0 2.041-.353 3.354-1.061 4-.686.645-2.059.958-4.201.958zm78.874-8.645c-2.017 0-2.745.333-2.995.604-.249.291-.561 1.041-.561 3.083 0 1.625.208 2.645.603 3.062.395.417 1.393.625 2.974.625 1.581 0 2.579-.208 2.975-.625.395-.417.582-1.437.582-3.062 0-1.625-.187-2.666-.582-3.083-.416-.396-1.415-.604-2.996-.604zm-.02 8.645c-2.122 0-3.516-.313-4.223-.958-.707-.646-1.061-1.959-1.061-4 0-2.042.354-3.354 1.061-4 .707-.645 2.101-.958 4.243-.958 2.122 0 3.516.313 4.202.958.707.646 1.04 1.958 1.04 4 0 2.041-.354 3.354-1.061 4-.665.645-2.059.958-4.201.958zM93.81 52.099c1.04 0 1.476-.167 1.643-.292.228-.187.353-.541.353-1.083 0-.583-.125-.958-.395-1.125-.208-.146-.666-.292-1.789-.292H90.19V52.1h3.62zm-5.45 1.416v-9.374h8.34v1.417h-6.49v2.333h3.683c1.352 0 2.288.208 2.89.646.604.458.895 1.187.895 2.187 0 .979-.312 1.708-.915 2.146-.582.437-1.518.645-2.829.645H88.36zm17.222-1.416c1.04 0 1.456-.167 1.644-.292.228-.187.353-.541.353-1.083 0-.563-.125-.958-.395-1.125-.208-.146-.686-.292-1.789-.292h-3.432V52.1h3.619zm-5.47 1.416v-7.999h-2.143V44.12h3.994v3.75h3.661c1.373 0 2.309.208 2.891.646.603.437.915 1.187.915 2.208 0 .979-.312 1.708-.936 2.146-.603.437-1.539.645-2.849.645h-5.533zm10.608 0v-9.374h8.133v1.417h-6.303v2.479h6.012v1.395h-6.012v2.688h6.261v1.416h-8.091v-.02zm29.911 0v-7.624l-6.344 7.624h-2.475v-9.374h1.83v7.708l6.323-7.708h2.496v9.374h-1.83zm11.814 0v-4.083h-6.364v4.083h-1.831v-9.374h1.831v3.896h6.364V44.14h1.831v9.374h-1.831zm3.557 0v-9.374h8.133v1.417h-6.302v2.479h6.011v1.395h-6.011v2.688h6.261v1.416h-8.092v-.02zm17.639 0v-4.083h-6.365v4.083h-1.83v-9.374h1.83v3.896h6.365V44.14h1.83v9.374h-1.83zm12.355 0v-7.624l-6.344 7.624h-2.475v-9.374h1.83v7.708l6.324-7.708h2.496v9.374h-1.831zm3.557 0v-9.374h8.133v1.417h-6.302v2.479h6.011v1.395h-6.011v2.688h6.26v1.416h-8.091v-.02zM81.912 45.433c-1.935 0-2.621.291-2.85.541-.229.25-.52.959-.52 2.854 0 1.875.291 2.583.54 2.833.25.25.937.563 2.83.563 1.892 0 2.579-.313 2.828-.563.25-.25.541-.958.541-2.833 0-1.895-.291-2.583-.54-2.833-.25-.27-.957-.562-2.83-.562zm-.021 8.186c-2.101 0-3.453-.312-4.16-.937-.707-.625-1.061-1.896-1.061-3.854 0-1.979.353-3.229 1.06-3.874.708-.625 2.08-.917 4.182-.917 2.1 0 3.452.313 4.139.938.707.645 1.04 1.895 1.04 3.853 0 1.958-.354 3.23-1.06 3.854-.667.625-2.04.937-4.14.937zm46.26-1.5v-6.561h-4.888v3.27c0 .917-.084 1.625-.229 2.146-.104.375-.291.75-.541 1.146h5.658zm.977 3.438v-2.042h-7.862v2.042h-1.727V52.12h.874a4.2 4.2 0 00.79-1.375 5.838 5.838 0 00.271-1.77V44.14h8.528v7.979h.853v3.437h-1.727z" fill="#3F3F3F"/></svg>