<svg width="192" height="35" fill="none" xmlns="http://www.w3.org/2000/svg"><path d="M112.746 28.485c-5.173 0-9.439-4.83-9.439-10.756 0-5.925 4.175-10.756 9.439-10.756 5.174 0 9.44 4.831 9.44 10.756 0 6.016-4.266 10.756-9.44 10.756zm0-27.62c-9.257 0-16.881 7.566-16.881 16.955 0 9.39 7.533 16.955 16.881 16.955 9.349 0 16.882-7.566 16.882-16.955S122.004.866 112.746.866zm45.836 1.185h-26.866v5.834h9.893v26.07h7.079V7.884h9.894V2.051zm10.619 19.325l4.447-11.668h.091l4.447 11.668h-8.985zm8.895-19.324h-8.895l-13.07 31.903h8.259l2.723-7.2h13.07l2.723 7.2h8.259L178.096 2.051zM27.702 2.05H.836v5.834h9.893v26.07h7.08V7.884h9.893V2.051zm18.697 26.435c-5.174 0-9.44-4.83-9.44-10.756 0-5.925 4.176-10.756 9.44-10.756 5.173 0 9.44 4.831 9.44 10.756 0 6.016-4.267 10.756-9.44 10.756zm0-27.62c-9.258 0-16.882 7.566-16.882 16.955 0 9.39 7.533 16.955 16.882 16.955S63.28 27.209 63.28 17.82 55.748.866 46.399.866zM95.592 2.05h-8.35l-7.715 13.4-7.624-13.4h-8.35l12.435 19.781v12.123h7.17V21.831l12.434-19.78z" fill="#3F3F3F"/></svg>