<svg width="138" height="42" fill="none" xmlns="http://www.w3.org/2000/svg"><path d="M38.423.01h7.282l-8.347 11.191h-3.02L38.423.011zm75.662 25.58l14.031-17.41h9.769l-5.862 32.863h-9.946l2.842-17.23-13.853 17.23h-9.769l5.861-32.863h10.124l-3.197 17.409zm8.88-25.58h7.282L121.9 11.201h-3.02l4.085-11.19zM76.787 8.181h25.043l-1.243 7.461H86.2l-.888 4.796h13.676l-1.243 7.46H84.069l-.888 5.152h14.386l-1.42 7.994H71.102l1.421-7.994.888-5.151 1.244-7.46.888-4.62 1.243-7.638zm-33.568 0h10.479l-2.132 12.435L62.933 8.004h11.19l-12.966 14.21 8.348 18.652h-12.61l-6.217-15.454-2.664 15.632H37.535L43.22 8.18zM19.064 15.11c-2.131 0-4.085.888-5.506 2.665-1.243 1.598-2.131 3.552-2.486 6.04-.533 2.486-.533 4.618 0 6.394.71 2.132 2.13 3.197 4.44 3.375 1.953.178 3.73-.71 5.15-2.31 1.421-1.776 2.487-3.907 3.02-6.75.533-2.486.355-4.618-.178-6.216-.888-1.954-2.309-3.02-4.44-3.198zm1.598-7.993c5.329.355 9.236 2.309 11.545 5.861 2.131 3.375 2.664 7.284 1.776 12.08-1.066 5.329-3.552 9.592-7.46 12.612-3.73 2.842-7.992 4.263-12.787 3.908C3.612 41.044-1.54 33.938.593 23.28c1.065-5.151 3.374-9.237 7.104-12.079 3.73-3.02 7.992-4.263 12.965-4.085z" fill="#3F3F3F"/></svg>