<svg width="198" height="56" viewBox="0 0 198 56" fill="none" xmlns="http://www.w3.org/2000/svg">
<path d="M163.99 25.0184H150.469V19.9564L156.065 19.9981L152.092 8.10349L146.164 25.0184H139.445C142.836 16.5401 146.684 5.29128 148.764 0.104327L155.482 0.0834961L163.99 25.0184Z" fill="#3F3F3F"/>
<path d="M80.7256 25.0591L69.2022 25.0383C68.0582 25.0383 66.103 24.9133 65.3333 24.6841C64.1269 24.33 63.8149 24.0384 63.3781 22.851C63.0453 21.9552 63.3573 20.1429 63.3573 18.3306V6.66518C63.3573 4.04046 63.1493 1.99901 64.1685 1.08243C64.9797 0.353344 67.143 0.27002 69.223 0.27002H82.8264L80.8296 5.41531L69.6806 5.43615V19.8305L82.868 19.7888L80.7256 25.0591Z" fill="#3F3F3F"/>
<path d="M59.6148 25.1021H42.1426V0.312988H61.5077L59.7188 5.58327H48.5283L48.5491 9.95781H59.6148V15.1864H48.6531L48.6739 19.6026L61.7157 19.686L59.6148 25.1021Z" fill="#3F3F3F"/>
<path d="M34.1138 10.4159L34.0306 5.35398L27.4161 5.39564V10.3951H34.1138V10.4159ZM40.8322 10.041C40.8322 13.6656 38.5234 14.3322 35.1954 14.2072L27.4161 13.9156V25.1644H20.8848V0.416992H35.1122C37.213 0.416992 38.9186 0.666966 39.7506 1.56271C40.6034 2.45845 40.8114 4.35408 40.8114 6.81216V10.041H40.8322Z" fill="#3F3F3F"/>
<path d="M19.0523 25.3937H12.9578V7.02065H6.42652V25.3937H0.332031V0.625488H19.0523V25.3937Z" fill="#3F3F3F"/>
<path d="M101.88 25.1841L90.3565 25.1633C89.2125 25.1633 87.2573 25.0383 86.4876 24.8091C85.2812 24.455 84.9692 24.1634 84.5324 22.976C84.1996 22.0802 84.5116 20.2679 84.5116 18.4556V6.79018C84.5116 4.16546 84.3036 2.124 85.3228 1.20743C86.134 0.478344 88.2973 0.39502 90.3773 0.39502H103.981L101.984 5.54031L90.8349 5.56114V19.9555L104.022 19.9138L101.88 25.1841Z" fill="#3F3F3F"/>
<path d="M137.74 7.1461C137.74 4.41722 137.802 1.87582 137.719 0.417642C136.554 0.375979 133.164 0.438473 130.48 0.438473H112.738C110.034 0.438473 107.122 0.396811 105.687 0.438473C105.707 1.81333 105.479 4.47972 105.479 7.1461V25.2067H112.176V5.35462L118.52 5.33379L118.458 25.3942L124.802 25.2067L124.844 5.25047H131.375V25.29L137.74 25.2067V7.1461Z" fill="#3F3F3F"/>
<path d="M197.978 18.3731C197.978 21.102 198.04 23.6434 197.957 25.1016C196.792 25.1432 193.402 25.0807 190.719 25.0807H172.976C170.272 25.0807 167.069 25.1224 165.654 25.0807C165.8 16.8316 165.717 8.56162 165.717 0.31248H172.435V20.1646L178.779 20.1854L178.717 0.125L185.04 0.291649L185.082 20.2479H191.613V0.208325L197.978 0.291649V18.3731Z" fill="#3F3F3F"/>
<path d="M14.2482 40.0585V31.6636H10.2753V30.3512H19.9059L19.8851 31.6636H15.9746V40.0585H14.2482ZM28.2884 36.8714L25.8756 31.7261L23.4835 36.8714H28.2884ZM29.8068 40.0585L28.8916 38.1421H22.9843L22.0067 40.0585H20.1555L24.7524 30.3512H26.9364L31.6373 40.0585H29.8068ZM41.143 40.0585V35.7465H34.3829V40.0585H32.6773V30.3721H34.3829V34.4966H41.143V30.3721H42.8486V40.0585H41.143ZM53.0824 40.0585L47.5079 35.7048H46.5511V40.0585H44.8454V30.3512H46.5511V34.4341H47.5287L52.4792 30.3512H54.8712L49.0679 35.0382L55.5368 40.0585H53.0824ZM81.4956 40.0585V31.6636H77.5227V30.3512H87.1533L87.1324 31.6636H83.2012V40.0585H81.4956ZM92.9773 35.1424C94.1214 35.1424 94.891 35.0382 95.2446 34.8508C95.6814 34.6216 95.8894 34.1633 95.8894 33.4134C95.8894 32.726 95.7646 32.2677 95.4942 32.0177C95.2446 31.7677 94.7454 31.6428 94.0173 31.6428H89.9197V35.1424H92.9773ZM88.2349 40.0585V30.3512H94.2046C95.3278 30.3512 96.1806 30.5804 96.7422 31.0387C97.3038 31.4969 97.595 32.226 97.595 33.2051C97.595 34.3925 97.2622 35.2257 96.6174 35.7048C95.9726 36.1631 94.9118 36.3923 93.3517 36.3923H89.9197V40.0377H88.2349V40.0585ZM119.643 40.0585V31.8302L112.966 40.0585H110.554V30.3512H112.259V38.6629L118.915 30.3512H121.328V40.0585H119.643ZM126.341 40.0585V31.6636H122.368V30.3512H131.999L131.978 31.6636H128.047V40.0585H126.341ZM133.06 40.0585V30.3512H141.234V31.6219H134.765V34.455H140.943V35.7257H134.765V38.767H141.213V40.0585H133.06ZM150.885 40.0585V31.6636H145.373V37.1422C145.373 38.1212 145.207 38.8295 144.853 39.2878C144.458 39.7877 143.813 40.0585 142.919 40.0585H141.879V38.7878H142.378C143.002 38.7878 143.272 38.6629 143.376 38.5587C143.522 38.4129 143.688 38.1004 143.688 37.2672V30.3721H152.612V40.0585H150.885ZM160.225 38.767C161.327 38.767 161.785 38.5795 161.972 38.4337C162.242 38.2254 162.367 37.8088 162.367 37.2255C162.367 36.6006 162.242 36.1839 161.972 35.9756C161.66 35.7257 161.036 35.6215 160.1 35.6215H156.418V38.7878H160.225V38.767ZM154.713 40.0585V30.3512H156.418V34.3091H160.204C161.577 34.3091 162.554 34.5175 163.158 34.9757C163.782 35.434 164.094 36.1839 164.094 37.2255C164.094 38.2254 163.782 38.9545 163.199 39.4128C162.617 39.8502 161.681 40.0794 160.329 40.0794H154.713V40.0585ZM174.223 40.0585V35.7465H167.463V40.0585H165.778V30.3721H167.484V34.4966H174.244V30.3721H175.95V40.0585H174.223ZM189.428 40.0585V30.3512H197.603V31.6219H191.134V34.455H197.312V35.7257H191.134V38.767H197.582V40.0585H189.428ZM5.03367 40.1627C3.07844 40.1627 1.78883 39.8711 1.12322 39.2461C0.374405 38.5587 0 37.2672 0 35.2465C0 33.2468 0.353605 31.9344 1.10242 31.2261C1.78883 30.5804 3.07844 30.2471 5.03367 30.2471C6.9473 30.2471 8.23692 30.497 8.92333 31.0178C9.54734 31.4761 9.88014 32.3094 9.88014 33.4967V33.6842L8.23692 33.6634L8.21612 33.5176C8.07052 32.476 7.82091 32.101 7.61291 31.9552C7.2385 31.6636 6.36489 31.5178 5.03367 31.5178C3.70245 31.5178 2.80804 31.7469 2.37123 32.226C1.93443 32.6843 1.72642 33.705 1.72642 35.2465C1.72642 36.7881 1.93443 37.7879 2.35043 38.2254C2.76644 38.6629 3.66085 38.892 5.03367 38.892C6.40649 38.892 7.3217 38.7462 7.75851 38.4545C8.17452 38.1837 8.36172 37.6213 8.36172 36.7672V36.5797H10.0257V36.7672C10.0257 38.0588 9.67214 38.9545 8.96493 39.4544C8.25772 39.9336 6.9889 40.1627 5.03367 40.1627ZM61.0073 31.5178C58.9896 31.5178 58.2616 31.8511 58.012 32.1219C57.7624 32.4135 57.4504 33.1634 57.4504 35.2049C57.4504 36.8297 57.6584 37.8504 58.0536 38.2671C58.4488 38.6837 59.4473 38.892 61.0281 38.892C62.6089 38.892 63.6073 38.6837 64.0025 38.2671C64.3977 37.8504 64.5849 36.8297 64.5849 35.2049C64.5849 33.5801 64.3977 32.5385 64.0025 32.1219C63.5865 31.7261 62.5881 31.5178 61.0073 31.5178ZM60.9865 40.1627C58.8648 40.1627 57.4712 39.8502 56.764 39.2045C56.0568 38.5587 55.7032 37.2463 55.7032 35.2049C55.7032 33.1634 56.0568 31.8511 56.764 31.2053C57.4712 30.5595 58.8648 30.2471 61.0073 30.2471C63.1289 30.2471 64.5225 30.5595 65.2089 31.2053C65.9161 31.8511 66.2489 33.1634 66.2489 35.2049C66.2489 37.2463 65.8953 38.5587 65.1881 39.2045C64.5225 39.8502 63.1289 40.1627 60.9865 40.1627ZM72.2602 40.1627C70.305 40.1627 69.0154 39.8711 68.3498 39.2461C67.601 38.5587 67.2474 37.2672 67.2474 35.2465C67.2474 33.2468 67.601 31.9344 68.3498 31.2261C69.0362 30.5804 70.3258 30.2471 72.281 30.2471C74.1947 30.2471 75.4843 30.497 76.1707 31.0178C76.7947 31.4761 77.1275 32.3094 77.1275 33.4967V33.6842L75.4843 33.6634L75.4635 33.5176C75.3179 32.476 75.0683 32.101 74.8603 31.9552C74.4859 31.6636 73.6123 31.5178 72.281 31.5178C70.9498 31.5178 70.0554 31.7469 69.6186 32.226C69.1818 32.6843 68.9738 33.705 68.9738 35.2465C68.9738 36.7881 69.1818 37.7879 69.6186 38.2254C70.0346 38.6629 70.929 38.892 72.3018 38.892C73.6747 38.892 74.5899 38.7462 75.0267 38.4545C75.4427 38.1837 75.6299 37.6213 75.6299 36.7672V36.5797H77.2939V36.7672C77.2939 38.0588 76.9403 38.9545 76.2331 39.4544C75.5051 39.9336 74.2155 40.1627 72.2602 40.1627ZM103.877 31.5178C101.859 31.5178 101.131 31.8511 100.881 32.1219C100.632 32.4135 100.32 33.1634 100.32 35.2049C100.32 36.8297 100.528 37.8504 100.923 38.2671C101.318 38.6837 102.317 38.892 103.897 38.892C105.478 38.892 106.477 38.6837 106.872 38.2671C107.267 37.8504 107.454 36.8297 107.454 35.2049C107.454 33.5801 107.267 32.5385 106.872 32.1219C106.477 31.7261 105.478 31.5178 103.877 31.5178ZM103.877 40.1627C101.755 40.1627 100.361 39.8502 99.6542 39.2045C98.947 38.5587 98.5934 37.2463 98.5934 35.2049C98.5934 33.1634 98.947 31.8511 99.6542 31.2053C100.361 30.5595 101.755 30.2471 103.897 30.2471C106.019 30.2471 107.413 30.5595 108.099 31.2053C108.806 31.8511 109.139 33.1634 109.139 35.2049C109.139 37.2463 108.786 38.5587 108.078 39.2045C107.392 39.8502 106.019 40.1627 103.877 40.1627ZM182.751 31.5178C180.734 31.5178 180.006 31.8511 179.756 32.1219C179.507 32.4135 179.195 33.1634 179.195 35.2049C179.195 36.8297 179.403 37.8504 179.798 38.2671C180.193 38.6837 181.191 38.892 182.772 38.892C184.353 38.892 185.351 38.6837 185.747 38.2671C186.142 37.8504 186.329 36.8297 186.329 35.2049C186.329 33.5801 186.142 32.5385 185.747 32.1219C185.331 31.7261 184.332 31.5178 182.751 31.5178ZM182.731 40.1627C180.609 40.1627 179.215 39.8502 178.508 39.2045C177.801 38.5587 177.447 37.2463 177.447 35.2049C177.447 33.1634 177.801 31.8511 178.508 31.2053C179.215 30.5595 180.609 30.2471 182.751 30.2471C184.873 30.2471 186.267 30.5595 186.953 31.2053C187.66 31.8511 187.993 33.1634 187.993 35.2049C187.993 37.2463 187.639 38.5587 186.932 39.2045C186.267 39.8502 184.873 40.1627 182.731 40.1627Z" fill="#3F3F3F"/>
<path d="M93.8094 52.0988C94.8494 52.0988 95.2862 51.9321 95.4526 51.8071C95.6814 51.6196 95.8062 51.2655 95.8062 50.7239C95.8062 50.1406 95.6814 49.7657 95.411 49.599C95.203 49.4532 94.7454 49.3074 93.6222 49.3074H90.1901V52.0988H93.8094ZM88.3597 53.5153V44.1413H96.7006V45.5578H90.2109V47.8909H93.8926C95.2446 47.8909 96.1806 48.0992 96.7838 48.5366C97.387 48.9949 97.6782 49.724 97.6782 50.7239C97.6782 51.703 97.3662 52.4321 96.763 52.8695C96.1806 53.307 95.2446 53.5153 93.9342 53.5153H88.3597ZM105.582 52.0988C106.622 52.0988 107.038 51.9321 107.226 51.8071C107.454 51.6196 107.579 51.2655 107.579 50.7239C107.579 50.1615 107.454 49.7657 107.184 49.599C106.976 49.4532 106.498 49.3074 105.395 49.3074H101.963V52.0988H105.582ZM100.112 53.5153V45.5161H97.9694V44.1204H101.963V47.87H105.624C106.997 47.87 107.933 48.0784 108.515 48.5158C109.118 48.9533 109.43 49.7032 109.43 50.7239C109.43 51.703 109.118 52.4321 108.494 52.8695C107.891 53.307 106.955 53.5153 105.645 53.5153H100.112ZM110.72 53.5153V44.1413H118.853V45.5578H112.55V48.0367H118.562V49.4324H112.55V52.1196H118.811V53.5361H110.72V53.5153ZM140.631 53.5153V45.8911L134.287 53.5153H131.812V44.1413H133.642V51.8488L139.965 44.1413H142.461V53.5153H140.631ZM152.445 53.5153V49.4324H146.081V53.5153H144.25V44.1413H146.081V48.0367H152.445V44.1413H154.276V53.5153H152.445ZM156.002 53.5153V44.1413H164.135V45.5578H157.833V48.0367H163.844V49.4324H157.833V52.1196H164.094V53.5361H156.002V53.5153ZM173.641 53.5153V49.4324H167.276V53.5153H165.446V44.1413H167.276V48.0367H173.641V44.1413H175.471V53.5153H173.641ZM185.996 53.5153V45.8911L179.652 53.5153H177.177V44.1413H179.007V51.8488L185.331 44.1413H187.827V53.5153H185.996ZM189.553 53.5153V44.1413H197.686V45.5578H191.384V48.0367H197.395V49.4324H191.384V52.1196H197.644V53.5361H189.553V53.5153ZM81.9116 45.4328C79.9772 45.4328 79.2908 45.7244 79.062 45.9744C78.8332 46.2244 78.5419 46.9326 78.5419 48.8283C78.5419 50.7031 78.8332 51.4113 79.0828 51.6613C79.3324 51.9113 80.0188 52.2238 81.9116 52.2238C83.8044 52.2238 84.4908 51.9113 84.7404 51.6613C84.99 51.4113 85.2812 50.7031 85.2812 48.8283C85.2812 46.9326 84.99 46.2452 84.7404 45.9952C84.4908 45.7244 83.7836 45.4328 81.9116 45.4328ZM81.8908 53.6194C79.79 53.6194 78.4379 53.307 77.7307 52.682C77.0235 52.0571 76.6699 50.7864 76.6699 48.8283C76.6699 46.8493 77.0235 45.5994 77.7307 44.9537C78.4379 44.3287 79.8108 44.0371 81.9116 44.0371C84.0124 44.0371 85.3644 44.3496 86.0509 44.9745C86.7581 45.6203 87.0909 46.8701 87.0909 48.8283C87.0909 50.7864 86.7373 52.0571 86.0301 52.682C85.3644 53.307 83.9916 53.6194 81.8908 53.6194ZM128.151 52.1196V45.5578H123.263V48.8283C123.263 49.7448 123.179 50.4531 123.034 50.9739C122.93 51.3488 122.743 51.7238 122.493 52.1196H128.151ZM129.128 55.5567V53.5153H121.266V55.5567H119.539V52.1196H120.413C120.787 51.6821 121.037 51.2239 121.203 50.7447C121.37 50.224 121.474 49.6199 121.474 48.9741V44.1413H130.002V52.1196H130.855V55.5567H129.128Z" fill="#3F3F3F"/>
</svg>
