<svg width="192" height="35" viewBox="0 0 192 35" fill="none" xmlns="http://www.w3.org/2000/svg">
<path d="M112.746 28.4854C107.573 28.4854 103.307 23.6542 103.307 17.7292C103.307 11.8042 107.482 6.97304 112.746 6.97304C117.92 6.97304 122.186 11.8042 122.186 17.7292C122.186 23.7454 117.92 28.4854 112.746 28.4854ZM112.746 0.865723C103.489 0.865723 95.8645 8.4315 95.8645 17.8204C95.8645 27.2092 103.398 34.775 112.746 34.775C122.095 34.775 129.628 27.2092 129.628 17.8204C129.628 8.4315 122.004 0.865723 112.746 0.865723Z" fill="#3F3F3F"/>
<path d="M158.582 2.05055H131.716V7.8844H141.609V33.9544H148.688V7.8844H158.582V2.05055Z" fill="#3F3F3F"/>
<path d="M169.201 21.3752L173.648 9.70748H173.739L178.186 21.3752H169.201ZM178.096 2.05055H169.201L156.131 33.9544H164.39L167.113 26.7533H180.183L182.906 33.9544H191.165L178.096 2.05055Z" fill="#3F3F3F"/>
<path d="M27.7017 2.05055H0.835938V7.8844H10.7291V33.9544H17.8086V7.8844H27.7017V2.05055Z" fill="#3F3F3F"/>
<path d="M46.3989 28.4854C41.2254 28.4854 36.9596 23.6542 36.9596 17.7292C36.9596 11.8042 41.1347 6.97304 46.3989 6.97304C51.5724 6.97304 55.8382 11.8042 55.8382 17.7292C55.8382 23.7454 51.5724 28.4854 46.3989 28.4854ZM46.3989 0.865723C37.1411 0.865723 29.5171 8.4315 29.5171 17.8204C29.5171 27.2092 37.0504 34.775 46.3989 34.775C55.7475 34.775 63.2808 27.2092 63.2808 17.8204C63.2808 8.4315 55.7475 0.865723 46.3989 0.865723Z" fill="#3F3F3F"/>
<path d="M95.5923 2.05055H87.2422L79.5273 15.4502L71.9033 2.05055H63.5531L75.9876 21.831V33.9544H83.1578V21.831L95.5923 2.05055Z" fill="#3F3F3F"/>
</svg>
