<svg width="138" height="42" viewBox="0 0 138 42" fill="none" xmlns="http://www.w3.org/2000/svg">
<path d="M38.4233 0.0102539H45.7053L37.3577 11.2012H34.3383L38.4233 0.0102539ZM114.085 25.5895L128.116 8.18139H137.885L132.023 41.0436H122.077L124.919 23.8131L111.066 41.0436H101.297L107.158 8.18139H117.282L114.085 25.5895ZM122.965 0.0102539H130.247L121.9 11.2012H118.88L122.965 0.0102539ZM76.7869 8.18139H87.4435H101.83L100.587 15.642H86.2002L85.3122 20.4381H98.9881L97.7448 27.8987H84.0689L83.1809 33.0501H97.5672L96.1464 41.0436H71.1034L72.5243 33.0501L73.4124 27.8987L74.6556 20.4381L75.5437 15.8196L76.7869 8.18139ZM43.2188 8.18139H53.6977L51.5664 20.6157L62.9334 8.00376H74.1228L61.1573 22.2144L69.505 40.8659H56.8947L50.6784 25.4118L48.0142 41.0436H37.5353L43.2188 8.18139ZM19.0639 15.1091C16.9326 15.1091 14.9789 15.9973 13.558 17.7736C12.3148 19.3723 11.4267 21.3263 11.0715 23.8131C10.5387 26.3 10.5387 28.4316 11.0715 30.2079C11.7819 32.3395 13.2028 33.4053 15.5117 33.583C17.4654 33.7606 19.2415 32.8724 20.6624 31.2737C22.0833 29.4974 23.1489 27.3658 23.6818 24.5237C24.2146 22.0368 24.037 19.9052 23.5041 18.3065C22.6161 16.3525 21.1952 15.2867 19.0639 15.1091ZM20.6624 7.11559C25.9907 7.47086 29.8981 9.42483 32.207 12.9775C34.3383 16.3525 34.8711 20.2605 33.9831 25.0566C32.9174 30.3856 30.4309 34.6488 26.5235 37.6685C22.7937 40.5107 18.5311 41.9317 13.7356 41.5765C3.6119 41.0436 -1.53878 33.9382 0.592537 23.2802C1.65819 18.1289 3.96711 14.0433 7.69691 11.2012C11.4267 8.18139 15.6893 6.93796 20.6624 7.11559Z" fill="#3F3F3F"/>
</svg>
