<svg width="40" height="40" fill="none" xmlns="http://www.w3.org/2000/svg"><path d="M0 20C0 8.954 8.954 0 20 0s20 8.954 20 20-8.954 20-20 20S0 31.046 0 20z" fill="#E3E3E3"/><path fill-rule="evenodd" clip-rule="evenodd" d="M20.214 26.992c.699 0 .699-1.04.699-1.444 0-.721.7-1.443 1.398-1.443.699 0 1.897 1.238 2.796 2.166.7.723.7.723 1.397.723h2.097S30 26.937 30 25.549c0-.45-.479-1.216-2.097-2.889-1.399-1.442-2.114-.696 0-3.608 1.288-1.772 2.226-3.38 2.065-3.842-.154-.442-3.738-1.146-4.162-.488-1.398 2.165-1.655 2.695-2.098 3.608-.7 1.445-.768 2.167-1.397 2.167-.635 0-.7-1.401-.7-2.167 0-2.386.336-4.073-.7-4.33h-2.094c-1.126 0-2.097.722-2.097.722s-.868.698-.7.722c.21.03 1.4-.299 1.4.723v1.442s.005 2.888-.7 2.888c-.7 0-2.097-2.889-3.496-5.054-.549-.85-.699-.722-1.397-.722-.75.001-1.399.033-2.099.033-.7 0-.788.46-.7.69 1.4 3.611 2.404 5.876 5.06 8.732 2.436 2.62 4.064 2.758 5.426 2.818.35.014 0 0 .7 0v-.002z" fill="#939393"/></svg>